# xmcd
#
# Track frame offsets: 
#        150
#        20276
#        47626
#        94913
#        108188
#        140235
#        161958
#        179683
#        194075
#        214058
#        230930
#        247005
#        277450
#
# Disc length: 4175 seconds
#
# Revision: 4
# Processed by: cddbd v1.5.2PL0 Copyright (c) Steve Scherf et al.
# Submitted via: ExactAudioCopy v1.3
#
DISCID=d6104d0d
DTITLE=Fleetwood Mac - Boston - Live At The Boston Tea Party Feb 1970 
DTITLE=CD 3 -
DYEAR=1970
DGENRE=Blues
TTITLE0=Jumping At Shadows
TTITLE1=Sandy Mary
TTITLE2=If You Let Me Love You
TTITLE3=Loving Kind
TTITLE4=Coming Your Way
TTITLE5=Madison Blues
TTITLE6=Got To Move
TTITLE7=The Sun Is Shining
TTITLE8=Oh Baby
TTITLE9=Tiger
TTITLE10=Great Balls Of Fire
TTITLE11=Tutti Frutti
TTITLE12=On We Jam
EXTD=YEAR: 1970
EXTT0=
EXTT1=
EXTT2=
EXTT3=
EXTT4=
EXTT5=
EXTT6=
EXTT7=
EXTT8=
EXTT9=
EXTT10=
EXTT11=
EXTT12=
PLAYORDER=
